<?xml version="1.0" encoding="utf-8"?>
<!-- Generator: Adobe Illustrator 24.3.2, SVG Export Plug-In . SVG Version: 6.00 Build 0)  -->
<svg version="1.1" id="Capa_1" xmlns="http://www.w3.org/2000/svg" xmlns:xlink="http://www.w3.org/1999/xlink" x="0px" y="0px"
	 viewBox="0 0 25.4 25.4" style="enable-background:new 0 0 25.4 25.4;" xml:space="preserve">
<style type="text/css">
	.st0{fill:#FFFFFF;}
</style>
<path id="Trazado_315" d="M12.7,0C5.7,0,0,5.7,0,12.7s5.7,12.7,12.7,12.7s12.7-5.7,12.7-12.7S19.7,0,12.7,0L12.7,0z"/>
<g>
	<polygon points="17.2,18.1 9.8,7.4 8.2,7.4 15.6,18.1 	"/>
	<path class="st0" d="M13.8,11.8l4.5-5.2h-1l-3.9,4.5l-3.1-4.5H6.7l4.7,6.8l-4.7,5.4h1l4.1-4.8l3.3,4.8h3.5L13.8,11.8z M9.8,7.4
		l7.5,10.7l-1.6,0L8.2,7.4L9.8,7.4z"/>
</g>
</svg>
