<?xml version="1.0" encoding="utf-8"?>
<!-- Generator: Adobe Illustrator 25.3.1, SVG Export Plug-In . SVG Version: 6.00 Build 0)  -->
<svg version="1.1" id="Capa_1" xmlns="http://www.w3.org/2000/svg" xmlns:xlink="http://www.w3.org/1999/xlink" x="0px" y="0px"
	 viewBox="0 0 25.4 25.4" style="enable-background:new 0 0 25.4 25.4;" xml:space="preserve">
<style type="text/css">
	.st0{fill:#25D366;}
</style>
<g id="Grupo_271" transform="translate(-515.404 -456)">
	<path id="Trazado_312" class="st0" d="M531.3,470.2c-0.2-0.1-1-0.5-1.2-0.6c-0.2-0.1-0.3-0.1-0.4,0.1c-0.2,0.2-0.4,0.5-0.6,0.7
		c-0.1,0.1-0.2,0.1-0.4,0.1c-0.5-0.2-1-0.5-1.4-0.9c-0.4-0.3-0.7-0.8-1-1.2c-0.1-0.1-0.1-0.3,0.1-0.3c0,0,0,0,0,0
		c0.1-0.1,0.2-0.2,0.3-0.3c0.1-0.1,0.1-0.2,0.2-0.3c0-0.1,0-0.2,0-0.3c-0.1-0.1-0.4-0.9-0.5-1.3c-0.1-0.3-0.3-0.3-0.4-0.3h-0.3
		c-0.2,0-0.4,0.1-0.5,0.2c-0.4,0.4-0.6,0.9-0.6,1.5c0.1,0.7,0.3,1.3,0.7,1.8c0.7,1.1,1.8,2,3,2.6c0.3,0.1,0.7,0.3,1,0.4
		c0.4,0.1,0.7,0.1,1.1,0.1c0.5-0.1,0.9-0.4,1.2-0.8c0.1-0.3,0.2-0.5,0.1-0.8C531.6,470.3,531.4,470.2,531.3,470.2z"/>
	<path id="Trazado_313" class="st0" d="M528.1,456c-7,0-12.7,5.7-12.7,12.7c0,7,5.7,12.7,12.7,12.7c7,0,12.7-5.7,12.7-12.7
		S535.1,456,528.1,456L528.1,456z M528.1,475.7L528.1,475.7c-1.2,0-2.3-0.3-3.4-0.8l-3.7,1l1-3.6c-1.9-3.3-0.8-7.6,2.6-9.5
		c1.1-0.6,2.3-0.9,3.5-0.9c3.9,0,7,3.2,6.9,7.1C534.9,472.6,531.9,475.6,528.1,475.7L528.1,475.7z"/>
</g>
</svg>
